<svg width="16" height="16" viewBox="0 0 16 16" fill="none" xmlns="http://www.w3.org/2000/svg">
<circle cx="8" cy="8" r="8" fill="#EEEEEE"/>
<circle cx="8" cy="8" r="8" fill="#007BFF"/>
<path d="M10.4064 11.619L9.84492 10.9083C10.9412 10.5956 11.369 9.79957 11.369 9.79957C9.97861 11.1926 6.18182 11.2495 4.71123 9.79957C4.71123 9.79957 5.08556 10.5387 6.20856 10.9083L5.59358 11.619C3.72193 11.5906 3 10.2544 3 10.2544C3 7.2978 4.22995 4.93817 4.22995 4.93817C5.48663 4 6.63636 4 6.63636 4L6.71658 4.11372C5.16578 4.56859 4.49733 5.30775 4.49733 5.30775C6.31551 4 10.0588 4.11372 11.5294 5.30775C11.5561 5.27932 10.6471 4.51173 9.22995 4.11372L9.36364 4C9.36364 4 10.5134 4 11.7701 4.93817C11.7701 4.93817 13 7.2978 13 10.2544C13 10.2544 12.2781 11.5906 10.4064 11.619Z" fill="white"/>
<path d="M6.39572 9.40167C6.88303 9.40167 7.27807 8.95618 7.27807 8.40665C7.27807 7.85711 6.88303 7.41162 6.39572 7.41162C5.90841 7.41162 5.51337 7.85711 5.51337 8.40665C5.51337 8.95618 5.90841 9.40167 6.39572 9.40167Z" fill="#007BFF"/>
<path d="M9.49734 9.40167C9.98465 9.40167 10.3797 8.95618 10.3797 8.40665C10.3797 7.85711 9.98465 7.41162 9.49734 7.41162C9.01003 7.41162 8.61499 7.85711 8.61499 8.40665C8.61499 8.95618 9.01003 9.40167 9.49734 9.40167Z" fill="#007BFF"/>
</svg>
