<svg width="30" height="30" viewBox="0 0 30 30" fill="none" xmlns="http://www.w3.org/2000/svg">
<g clip-path="url(#clip0_20_305)">
<path d="M26.993 3.00012H3.00703C3.00315 3.00012 3 3.00327 3 3.00715V26.9931C3 26.997 3.00315 27.0001 3.00703 27.0001H26.993C26.9969 27.0001 27 26.997 27 26.9931V3.00715C27 3.00327 26.9969 3.00012 26.993 3.00012Z" fill="#1877F2"/>
<path d="M19.6688 18.4689L20.2031 15.0001H16.875V12.7501C16.875 11.8032 17.3391 10.8751 18.8297 10.8751H20.3438V7.922C20.3438 7.922 18.9703 7.68762 17.6578 7.68762C14.9156 7.68762 13.125 9.347 13.125 12.3564V15.0001H10.0781V18.4689H13.125V27.0001H16.875V18.4689H19.6688Z" fill="white"/>
</g>
<defs>
<clipPath id="clip0_20_305">
<rect x="3" y="3.00012" width="24" height="24" rx="4" fill="white"/>
</clipPath>
</defs>
</svg>
